<svg width="1101" height="357" viewBox="0 0 1101 357" fill="none" xmlns="http://www.w3.org/2000/svg">
<path d="M154.115 0L95 349H287L154.115 0Z" fill="#5B00CE"/>
<path d="M255.674 34.2607C263.155 27.0227 279.547 22 298.565 22C323.096 22 343.257 30.3564 345.561 41.044C352.622 44.3418 357 48.9284 357 54C357 64.0415 339.838 72.1818 318.667 72.1818C317.999 72.1818 317.335 72.1737 316.676 72.1577C310.633 75.777 302.442 78 293.423 78C278.859 78 266.456 72.2042 261.767 64.0925C249.979 60.9913 242 55.0286 242 48.1818C242 42.5945 247.313 37.5959 255.674 34.2607Z" fill="#D2EFFD"/>
<path d="M154 0V349H0L154 0Z" fill="#BDC3FF"/>
<path d="M252 56V344H173L252 56Z" fill="#FFE2FC"/>
<path d="M252 57L242 348H332L252 57Z" fill="#FFA8F6"/>
<path d="M421 164V348H328.548H233.878H154L233.878 296.25L324.414 261.662L421 164Z" fill="#BDC3FF"/>
<path d="M419.415 164L394 349H611V344.53L419.415 164Z" fill="#5B00CE"/>
<path d="M316 164V349H154L316 164Z" fill="#D2EFFD"/>
<path d="M785.071 33.269L839.953 119.657L803.951 87.8645L765.972 121.411L750.386 100.801L730.409 113.408L757.521 74.5445L785.071 33.269Z" fill="white"/>
<path d="M783.095 38.531L783.095 349.44H999.987L783.095 38.531Z" fill="#5B00CE"/>
<path d="M782.656 38.5308L892.419 349.44H606.431H571L782.656 38.5308Z" fill="#BDC3FF"/>
<path d="M961.335 157.369L961.335 349.44H822.171L961.335 157.369Z" fill="#FFA8F6"/>
<path d="M961.335 157.369L942.875 349.44H1100.5V344.799L961.335 157.369Z" fill="#FFE2FC"/>
<path d="M783.096 223.585L783.096 349.44H659.283L783.096 223.585Z" fill="#D2EFFD"/>
<path d="M783.271 223.585L739.629 349.44H907.348L783.271 223.585Z" fill="#ABE0F7"/>
<path d="M783.099 37.0144L836.156 115.131L802.27 90.3112L801.945 90.0733L801.643 90.3398L764.07 123.529L748.809 103.349L748.532 102.983L748.143 103.228L730.259 114.515L755.955 77.6807L755.955 77.6807L755.96 77.6722L783.099 37.0144Z" fill="#FCFCFC" stroke="#C4F1FF"/>
<path d="M708.995 187.931C705.184 179.307 693.987 171.031 679.465 167.14C660.735 162.121 643.146 166.186 638.58 176.188C632.322 177.976 627.775 181.575 626.443 186.545C623.806 196.386 634.773 207.875 650.939 212.207C651.449 212.343 651.958 212.471 652.465 212.59C656.129 217.374 661.799 221.228 668.686 223.073C679.807 226.053 690.799 222.911 696.51 215.92C706.325 215.293 713.983 211.082 715.781 204.372C717.248 198.896 714.504 192.91 708.995 187.931Z" fill="#B8E7FF"/>
<path d="M605.229 187.445C602.846 189.212 601.121 192.107 600.9 194.388C600.45 199.022 605.334 203.425 612.314 205.159C616.277 209.983 623.209 214.249 631.659 216.513C645.56 220.238 658.615 217.216 662.006 209.785C666.651 208.456 670.026 205.782 671.016 202.09C672.975 194.779 664.837 186.247 652.839 183.032C652.461 182.931 652.083 182.836 651.706 182.748C648.988 179.195 644.78 176.333 639.668 174.963C632.657 173.085 625.713 174.488 621.183 178.137C615.224 178.681 610.328 180.863 607.993 184.007C606.786 184.985 605.843 186.137 605.229 187.445Z" fill="#6FCDFD"/>
<path d="M790.207 25.3437C791.019 24.5321 794.27 26.1554 795.692 32.6488C797.114 39.1421 796.708 75.8597 795.895 76.981C795.083 78.1023 791.832 76.4789 791.019 74.8556C790.207 73.2322 789.394 26.1554 790.207 25.3437Z" fill="#37474F"/>
<path d="M796.804 28.3882C801.486 33.8318 795.82 60.7708 801.631 50.2465C807.442 39.7221 826.573 68.0569 826.573 39.7221C826.573 11.3874 819.462 33.2677 813.774 30.021C808.085 26.7743 792.121 22.9446 796.804 28.3882Z" fill="#00F0C5"/>
<path d="M314.317 164L220 349H478L314.317 164Z" fill="#ABE0F7"/>
<path d="M611 266V350H531L611 266Z" fill="#FFE2FC"/>
<path d="M609.859 266L599 350H691L609.859 266Z" fill="#FFA8F6"/>
<path d="M353.56 63.8922C355.383 65.7642 356.29 68.3761 355.918 70.197C355.162 73.8968 349.372 76.3042 342.264 76.1985C337.246 79.1257 329.535 81 320.888 81C306.662 81 294.97 75.9265 293.634 69.4376C289.539 67.4353 287 64.6506 287 61.5714C287 55.4748 296.953 50.5325 309.231 50.5325C309.618 50.5325 310.003 50.5374 310.385 50.5471C313.89 48.3497 318.64 47 323.87 47C331.046 47 337.317 49.5398 340.709 53.3238C346.259 54.989 350.376 57.7075 351.8 60.6408C352.703 61.6536 353.308 62.7466 353.56 63.8922Z" fill="#A1D6F1"/>
<path d="M0 348H1101V349.8L0 354V348Z" fill="#5B00CE"/>
<path d="M0 354L1101 349V351.667L0 357V354Z" fill="#FFA8F6"/>
</svg>
