<svg width="1113" height="357" viewBox="0 0 1113 357" fill="none" xmlns="http://www.w3.org/2000/svg">
<path d="M154.115 0L95 349H287L154.115 0Z" fill="#5B00CE"/>
<path d="M184.534 134.29C190.844 128.216 204.67 124 220.711 124C241.402 124 258.408 131.013 260.351 139.983C266.307 142.751 270 146.601 270 150.857C270 159.285 255.524 166.117 237.667 166.117C237.104 166.117 236.544 166.11 235.988 166.097C230.89 169.134 223.982 171 216.374 171C204.09 171 193.628 166.136 189.673 159.328C179.73 156.725 173 151.72 173 145.974C173 141.285 177.482 137.089 184.534 134.29Z" fill="#D2EFFD"/>
<path d="M154 0V349H0L154 0Z" fill="#BDC3FF"/>
<path d="M686.81 240.625C692.723 247.968 705.681 253.064 720.715 253.064C740.106 253.064 756.043 244.586 757.865 233.742C763.447 230.396 766.907 225.743 766.907 220.597C766.907 210.409 753.341 202.15 736.605 202.15C736.077 202.15 735.553 202.158 735.031 202.175C730.254 198.502 723.78 196.247 716.65 196.247C705.137 196.247 695.332 202.127 691.626 210.357C682.307 213.504 676 219.554 676 226.5C676 232.169 680.2 237.241 686.81 240.625Z" fill="#B8E7FF"/>
<path d="M252 56V344H173L252 56Z" fill="#FFE2FC"/>
<path d="M252 57L242 348H332L252 57Z" fill="#FFA8F6"/>
<path d="M430 234V348H372.521H313.662H264L313.662 315.937L369.95 294.508L430 234Z" fill="#BDC3FF"/>
<path d="M429.811 234L414 349H549V346.221L429.811 234Z" fill="#5B00CE"/>
<path d="M316 164V349H154L316 164Z" fill="#D2EFFD"/>
<path d="M897.854 33L952 119.249L916.48 87.5075L879.011 121L863.634 100.423L845 113.601L870.673 74.209L897.854 33Z" fill="white"/>
<path d="M896.096 38.531L896.096 349.44H1112.99L896.096 38.531Z" fill="#5B00CE"/>
<path d="M895.656 38.5308L1005.42 349.44H719.431H684L895.656 38.5308Z" fill="#BDC3FF"/>
<path d="M913 179L913 349H990L913 179Z" fill="#FFA8F6"/>
<path d="M912.811 179L923 349H836V344.893L912.811 179Z" fill="#FFE2FC"/>
<path d="M783.096 223.585L783.096 349.44H659.283L783.096 223.585Z" fill="#D2EFFD"/>
<path d="M783.271 223.585L739.629 349.44H907.348L783.271 223.585Z" fill="#ABE0F7"/>
<path d="M897.772 33L952 118.5L917.38 89.3657L877.936 124L861.748 102.721L843.5 115L869.158 75.6138L897.772 33Z" fill="#FCFCFC" stroke="#C4F1FF" stroke-width="2"/>
<path d="M773.335 214.237C775.18 211.913 776.097 208.671 775.721 206.411C774.956 201.818 769.099 198.829 761.908 198.961C756.831 195.327 749.031 193 740.283 193C725.891 193 714.063 199.298 712.711 207.353C708.568 209.839 706 213.296 706 217.118C706 224.687 716.069 230.822 728.49 230.822C728.881 230.822 729.271 230.816 729.658 230.804C733.203 233.532 738.008 235.207 743.3 235.207C750.559 235.207 756.903 232.054 760.335 227.357C765.95 225.29 770.114 221.915 771.555 218.274C772.469 217.016 773.081 215.66 773.335 214.237Z" fill="#6FCDFD"/>
<path d="M903.208 25.3437C904.02 24.5321 907.271 26.1554 908.693 32.6488C910.115 39.1421 909.709 75.8597 908.896 76.981C908.084 78.1023 904.833 76.4789 904.02 74.8556C903.208 73.2322 902.395 26.1554 903.208 25.3437Z" fill="#37474F"/>
<path d="M909.804 28.3882C914.486 33.8318 908.82 60.7708 914.631 50.2465C920.442 39.7221 939.573 68.0569 939.573 39.7221C939.573 11.3874 932.462 33.2677 926.773 30.021C921.085 26.7743 905.121 22.9446 909.804 28.3882Z" fill="#00F0C5"/>
<path d="M314.317 164L220 349H478L314.317 164Z" fill="#ABE0F7"/>
<path d="M611 266V350H531L611 266Z" fill="#FFE2FC"/>
<path d="M609.859 266L599 350H691L609.859 266Z" fill="#FFA8F6"/>
<path d="M267.913 159.408C269.473 161.005 270.248 163.233 269.93 164.786C269.283 167.941 264.332 169.995 258.255 169.905C253.964 172.401 247.371 174 239.977 174C227.813 174 217.815 169.673 216.672 164.138C213.171 162.43 211 160.055 211 157.429C211 152.228 219.511 148.013 230.009 148.013C230.34 148.013 230.669 148.017 230.996 148.025C233.993 146.151 238.054 145 242.527 145C248.662 145 254.025 147.166 256.925 150.394C261.671 151.814 265.191 154.133 266.409 156.635C267.181 157.499 267.698 158.431 267.913 159.408Z" fill="#A1D6F1"/>
<path d="M0 348H1113V349.8L0 354V348Z" fill="#5B00CE"/>
<path d="M0 354L1113 349V351.667L0 357V354Z" fill="#FFA8F6"/>
</svg>
