<svg width="1101" height="641" viewBox="0 0 1101 641" fill="none" xmlns="http://www.w3.org/2000/svg">
<path d="M154.115 0L95 633H287L154.115 0Z" fill="#5B00CE"/>
<path d="M255.674 318.261C263.155 311.023 279.547 306 298.565 306C323.096 306 343.257 314.356 345.561 325.044C352.622 328.342 357 332.928 357 338C357 348.042 339.838 356.182 318.667 356.182C317.999 356.182 317.335 356.174 316.676 356.158C310.633 359.777 302.442 362 293.423 362C278.859 362 266.456 356.204 261.767 348.093C249.979 344.991 242 339.029 242 332.182C242 326.594 247.313 321.596 255.674 318.261Z" fill="#D2EFFD"/>
<path d="M154 0V633H0L154 0Z" fill="#BDC3FF"/>
<path d="M252 102V624H173L252 102Z" fill="#FFE2FC"/>
<path d="M252 102.5L242 632H332L252 102.5Z" fill="#FFA8F6"/>
<path d="M421 448V632H328.548H233.878H154L233.878 580.25L324.414 545.662L421 448Z" fill="#BDC3FF"/>
<path d="M419.415 448L394 633H611V628.53L419.415 448Z" fill="#5B00CE"/>
<path d="M316 448V633H154L316 448Z" fill="#D2EFFD"/>
<path d="M785.071 317.269L839.953 403.657L803.951 371.864L765.972 405.411L750.386 384.801L730.409 397.408L757.521 358.545L785.071 317.269Z" fill="white"/>
<path d="M783.095 322.531L783.095 633.44H999.987L783.095 322.531Z" fill="#5B00CE"/>
<path d="M782.656 322.531L892.419 633.44H606.431H571L782.656 322.531Z" fill="#BDC3FF"/>
<path d="M961.335 441.369L961.335 633.44H822.171L961.335 441.369Z" fill="#FFA8F6"/>
<path d="M961.335 441.369L942.875 633.44H1100.5V628.799L961.335 441.369Z" fill="#FFE2FC"/>
<path d="M783.096 507.585L783.096 633.44H659.283L783.096 507.585Z" fill="#D2EFFD"/>
<path d="M783.271 507.585L739.629 633.44H907.348L783.271 507.585Z" fill="#ABE0F7"/>
<path d="M783.099 321.014L836.156 399.131L802.27 374.311L801.945 374.073L801.643 374.34L764.07 407.529L748.809 387.349L748.532 386.983L748.143 387.228L730.259 398.515L755.955 361.681L755.955 361.681L755.96 361.672L783.099 321.014Z" fill="#FCFCFC" stroke="#C4F1FF"/>
<path d="M708.995 471.931C705.184 463.307 693.987 455.031 679.465 451.14C660.735 446.121 643.146 450.186 638.58 460.188C632.322 461.976 627.775 465.575 626.443 470.545C623.806 480.386 634.773 491.875 650.939 496.207C651.449 496.343 651.958 496.471 652.465 496.59C656.129 501.374 661.799 505.228 668.686 507.073C679.807 510.053 690.799 506.911 696.51 499.92C706.325 499.293 713.983 495.082 715.781 488.372C717.248 482.896 714.504 476.91 708.995 471.931Z" fill="#B8E7FF"/>
<path d="M605.229 471.445C602.846 473.212 601.121 476.107 600.9 478.388C600.45 483.022 605.334 487.425 612.314 489.159C616.277 493.983 623.209 498.249 631.659 500.513C645.56 504.238 658.615 501.216 662.006 493.785C666.651 492.456 670.026 489.782 671.016 486.09C672.975 478.779 664.837 470.247 652.839 467.032C652.461 466.931 652.083 466.836 651.706 466.748C648.988 463.195 644.78 460.333 639.668 458.963C632.657 457.085 625.713 458.488 621.183 462.137C615.224 462.681 610.328 464.863 607.993 468.007C606.786 468.985 605.843 470.137 605.229 471.445Z" fill="#6FCDFD"/>
<path d="M790.207 309.344C791.019 308.532 794.27 310.155 795.692 316.649C797.114 323.142 796.708 359.86 795.895 360.981C795.083 362.102 791.832 360.479 791.019 358.856C790.207 357.232 789.394 310.155 790.207 309.344Z" fill="#37474F"/>
<path d="M796.804 312.388C801.486 317.832 795.82 344.771 801.631 334.246C807.442 323.722 826.573 352.057 826.573 323.722C826.573 295.387 819.462 317.268 813.774 314.021C808.085 310.774 792.121 306.945 796.804 312.388Z" fill="#00F0C5"/>
<path d="M314.317 448L220 633H478L314.317 448Z" fill="#ABE0F7"/>
<path d="M611 550V634H531L611 550Z" fill="#FFE2FC"/>
<path d="M609.859 550L599 634H691L609.859 550Z" fill="#FFA8F6"/>
<path d="M353.56 347.892C355.383 349.764 356.29 352.376 355.918 354.197C355.162 357.897 349.372 360.304 342.264 360.198C337.246 363.126 329.535 365 320.888 365C306.662 365 294.97 359.926 293.634 353.438C289.539 351.435 287 348.651 287 345.571C287 339.475 296.953 334.532 309.231 334.532C309.618 334.532 310.003 334.537 310.385 334.547C313.89 332.35 318.64 331 323.87 331C331.046 331 337.317 333.54 340.709 337.324C346.259 338.989 350.376 341.708 351.8 344.641C352.703 345.654 353.308 346.747 353.56 347.892Z" fill="#A1D6F1"/>
<path d="M0 632H1101V633.8L0 638V632Z" fill="#5B00CE"/>
<path d="M0 638L1101 633V635.667L0 641V638Z" fill="#FFA8F6"/>
</svg>
