<svg width="330" height="310" viewBox="0 0 330 310" fill="none" xmlns="http://www.w3.org/2000/svg">
<path d="M330 51H92L140.967 256.311L100.772 309.997L330 310V51Z" stroke="#A6CDF4" stroke-width="2"/>
<path d="M60.0346 1L70.7385 45.0882L70.798 45.3335L70.734 45.5777L68.4912 54.1336L68.4909 54.1347L59.6773 87.5965L42.0502 154.52L42.0488 154.525L40.305 161H67.1545H85.8172L118.864 20.8771L87.9402 1H60.0346Z" stroke="#A6CDF4" stroke-width="2"/>
<path d="M85.9989 164.685L37.7013 164.685L0 309.998L196 310L115.571 0H67.273L128.625 260.435H61.1567L85.9989 164.685Z" fill="#F6F8FE"/>
<path d="M128.625 260.435L67.273 0H115.571L196 310L0 309.998L37.7013 164.685L85.9989 164.685L61.1567 260.435H128.625Z" fill="#F6F8FE"/>
</svg>
